<svg xmlns="http://www.w3.org/2000/svg" viewBox="0 0 960 660" width="960" height="660"
     font-family="-apple-system, SF Pro Text, Helvetica, Arial, sans-serif">
  <style>
    .ttl { font-size: 21px; fill: #111827; font-weight: 700; }
    .sub { font-size: 12.5px; fill: #6b7280; }
    .nm  { font-size: 13px; fill: #111827; font-weight: 600; }
    .hx  { font-size: 12px; fill: #6b7280; font-family: ui-monospace, SFMono-Regular, Menlo, monospace; }
    .nm2 { font-size: 14px; fill: #111827; font-weight: 600; }
    .hx2 { font-size: 13px; fill: #6b7280; font-family: ui-monospace, SFMono-Regular, Menlo, monospace; }
    .ctr { font-size: 13px; fill: #6b7280; }
    .ctrh{ font-size: 19px; fill: #111827; font-weight: 700; font-family: ui-monospace, SFMono-Regular, Menlo, monospace; }
  </style>
  <rect width="960" height="660" fill="#ffffff"/>

  <text class="ttl" x="40" y="46">Rolling Calendar — palette</text>
  <text class="sub" x="40" y="68">Five hues sharing the saturation and lightness of the app's block green, so they sit together evenly.</text>

  <path d="M328.34 140.01A190.0 190.0 0 0 1 331.66 140.01L331.05 210.00A120.0 120.0 0 0 0 328.95 210.00Z" fill="#CD2828"/>
  <path d="M331.66 140.01A190.0 190.0 0 0 1 334.97 140.07L333.14 210.04A120.0 120.0 0 0 0 331.05 210.00Z" fill="#CD2B28"/>
  <path d="M334.97 140.07A190.0 190.0 0 0 1 338.29 140.18L335.23 210.11A120.0 120.0 0 0 0 333.14 210.04Z" fill="#CD2E28"/>
  <path d="M338.29 140.18A190.0 190.0 0 0 1 341.60 140.35L337.33 210.22A120.0 120.0 0 0 0 335.23 210.11Z" fill="#CD3028"/>
  <path d="M341.60 140.35A190.0 190.0 0 0 1 344.91 140.59L339.42 210.37A120.0 120.0 0 0 0 337.33 210.22Z" fill="#CD3328"/>
  <path d="M344.91 140.59A190.0 190.0 0 0 1 348.21 140.87L341.50 210.55A120.0 120.0 0 0 0 339.42 210.37Z" fill="#CD3628"/>
  <path d="M348.21 140.87A190.0 190.0 0 0 1 351.51 141.22L343.58 210.77A120.0 120.0 0 0 0 341.50 210.55Z" fill="#CD3828"/>
  <path d="M351.51 141.22A190.0 190.0 0 0 1 354.80 141.63L345.66 211.03A120.0 120.0 0 0 0 343.58 210.77Z" fill="#CD3B28"/>
  <path d="M354.80 141.63A190.0 190.0 0 0 1 358.08 142.09L347.74 211.32A120.0 120.0 0 0 0 345.66 211.03Z" fill="#CD3E28"/>
  <path d="M358.08 142.09A190.0 190.0 0 0 1 361.36 142.61L349.81 211.65A120.0 120.0 0 0 0 347.74 211.32Z" fill="#CD4128"/>
  <path d="M361.36 142.61A190.0 190.0 0 0 1 364.62 143.18L351.87 212.01A120.0 120.0 0 0 0 349.81 211.65Z" fill="#CD4428"/>
  <path d="M364.62 143.18A190.0 190.0 0 0 1 367.88 143.81L353.92 212.41A120.0 120.0 0 0 0 351.87 212.01Z" fill="#CD4628"/>
  <path d="M367.88 143.81A190.0 190.0 0 0 1 371.12 144.50L355.97 212.84A120.0 120.0 0 0 0 353.92 212.41Z" fill="#CD4928"/>
  <path d="M371.12 144.50A190.0 190.0 0 0 1 374.35 145.25L358.01 213.32A120.0 120.0 0 0 0 355.97 212.84Z" fill="#CD4C28"/>
  <path d="M374.35 145.25A190.0 190.0 0 0 1 377.57 146.05L360.05 213.82A120.0 120.0 0 0 0 358.01 213.32Z" fill="#CD4E28"/>
  <path d="M377.57 146.05A190.0 190.0 0 0 1 380.78 146.91L362.07 214.36A120.0 120.0 0 0 0 360.05 213.82Z" fill="#CD5128"/>
  <path d="M380.78 146.91A190.0 190.0 0 0 1 383.96 147.82L364.08 214.94A120.0 120.0 0 0 0 362.07 214.36Z" fill="#CD5428"/>
  <path d="M383.96 147.82A190.0 190.0 0 0 1 387.13 148.79L366.08 215.55A120.0 120.0 0 0 0 364.08 214.94Z" fill="#CD5728"/>
  <path d="M387.13 148.79A190.0 190.0 0 0 1 390.29 149.82L368.08 216.20A120.0 120.0 0 0 0 366.08 215.55Z" fill="#CD5A28"/>
  <path d="M390.29 149.82A190.0 190.0 0 0 1 393.42 150.90L370.06 216.88A120.0 120.0 0 0 0 368.08 216.20Z" fill="#CD5C28"/>
  <path d="M393.42 150.90A190.0 190.0 0 0 1 396.54 152.03L372.02 217.60A120.0 120.0 0 0 0 370.06 216.88Z" fill="#CD5F28"/>
  <path d="M396.54 152.03A190.0 190.0 0 0 1 399.64 153.22L373.98 218.35A120.0 120.0 0 0 0 372.02 217.60Z" fill="#CD6228"/>
  <path d="M399.64 153.22A190.0 190.0 0 0 1 402.71 154.46L375.92 219.13A120.0 120.0 0 0 0 373.98 218.35Z" fill="#CD6428"/>
  <path d="M402.71 154.46A190.0 190.0 0 0 1 405.76 155.76L377.85 219.95A120.0 120.0 0 0 0 375.92 219.13Z" fill="#CD6728"/>
  <path d="M405.76 155.76A190.0 190.0 0 0 1 408.79 157.11L379.76 220.80A120.0 120.0 0 0 0 377.85 219.95Z" fill="#CD6A28"/>
  <path d="M408.79 157.11A190.0 190.0 0 0 1 411.80 158.51L381.66 221.69A120.0 120.0 0 0 0 379.76 220.80Z" fill="#CD6D28"/>
  <path d="M411.80 158.51A190.0 190.0 0 0 1 414.78 159.96L383.54 222.61A120.0 120.0 0 0 0 381.66 221.69Z" fill="#CD7028"/>
  <path d="M414.78 159.96A190.0 190.0 0 0 1 417.73 161.47L385.41 223.56A120.0 120.0 0 0 0 383.54 222.61Z" fill="#CD7228"/>
  <path d="M417.73 161.47A190.0 190.0 0 0 1 420.66 163.02L387.26 224.54A120.0 120.0 0 0 0 385.41 223.56Z" fill="#CD7528"/>
  <path d="M420.66 163.02A190.0 190.0 0 0 1 423.56 164.63L389.09 225.56A120.0 120.0 0 0 0 387.26 224.54Z" fill="#CD7828"/>
  <path d="M423.56 164.63A190.0 190.0 0 0 1 426.43 166.29L390.90 226.60A120.0 120.0 0 0 0 389.09 225.56Z" fill="#CD7A28"/>
  <path d="M426.43 166.29A190.0 190.0 0 0 1 429.27 168.00L392.70 227.68A120.0 120.0 0 0 0 390.90 226.60Z" fill="#CD7D28"/>
  <path d="M429.27 168.00A190.0 190.0 0 0 1 432.09 169.76L394.48 228.79A120.0 120.0 0 0 0 392.70 227.68Z" fill="#CD8028"/>
  <path d="M432.09 169.76A190.0 190.0 0 0 1 434.87 171.56L396.23 229.93A120.0 120.0 0 0 0 394.48 228.79Z" fill="#CD8328"/>
  <path d="M434.87 171.56A190.0 190.0 0 0 1 437.62 173.42L397.97 231.10A120.0 120.0 0 0 0 396.23 229.93Z" fill="#CD8628"/>
  <path d="M437.62 173.42A190.0 190.0 0 0 1 440.33 175.32L399.68 232.31A120.0 120.0 0 0 0 397.97 231.10Z" fill="#CD8828"/>
  <path d="M440.33 175.32A190.0 190.0 0 0 1 443.02 177.27L401.38 233.54A120.0 120.0 0 0 0 399.68 232.31Z" fill="#CD8B28"/>
  <path d="M443.02 177.27A190.0 190.0 0 0 1 445.66 179.26L403.05 234.80A120.0 120.0 0 0 0 401.38 233.54Z" fill="#CD8E28"/>
  <path d="M445.66 179.26A190.0 190.0 0 0 1 448.28 181.30L404.70 236.09A120.0 120.0 0 0 0 403.05 234.80Z" fill="#CD9028"/>
  <path d="M448.28 181.30A190.0 190.0 0 0 1 450.85 183.39L406.33 237.41A120.0 120.0 0 0 0 404.70 236.09Z" fill="#CD9328"/>
  <path d="M450.85 183.39A190.0 190.0 0 0 1 453.40 185.52L407.93 238.75A120.0 120.0 0 0 0 406.33 237.41Z" fill="#CD9628"/>
  <path d="M453.40 185.52A190.0 190.0 0 0 1 455.90 187.70L409.51 240.13A120.0 120.0 0 0 0 407.93 238.75Z" fill="#CD9928"/>
  <path d="M455.90 187.70A190.0 190.0 0 0 1 458.36 189.92L411.07 241.53A120.0 120.0 0 0 0 409.51 240.13Z" fill="#CD9C28"/>
  <path d="M458.36 189.92A190.0 190.0 0 0 1 460.79 192.18L412.60 242.96A120.0 120.0 0 0 0 411.07 241.53Z" fill="#CD9E28"/>
  <path d="M460.79 192.18A190.0 190.0 0 0 1 463.17 194.48L414.11 244.41A120.0 120.0 0 0 0 412.60 242.96Z" fill="#CDA128"/>
  <path d="M463.17 194.48A190.0 190.0 0 0 1 465.52 196.83L415.59 245.89A120.0 120.0 0 0 0 414.11 244.41Z" fill="#CDA428"/>
  <path d="M465.52 196.83A190.0 190.0 0 0 1 467.82 199.21L417.04 247.40A120.0 120.0 0 0 0 415.59 245.89Z" fill="#CDA628"/>
  <path d="M467.82 199.21A190.0 190.0 0 0 1 470.08 201.64L418.47 248.93A120.0 120.0 0 0 0 417.04 247.40Z" fill="#CDA928"/>
  <path d="M470.08 201.64A190.0 190.0 0 0 1 472.30 204.10L419.87 250.49A120.0 120.0 0 0 0 418.47 248.93Z" fill="#CDAC28"/>
  <path d="M472.30 204.10A190.0 190.0 0 0 1 474.48 206.60L421.25 252.07A120.0 120.0 0 0 0 419.87 250.49Z" fill="#CDAF28"/>
  <path d="M474.48 206.60A190.0 190.0 0 0 1 476.61 209.15L422.59 253.67A120.0 120.0 0 0 0 421.25 252.07Z" fill="#CDB228"/>
  <path d="M476.61 209.15A190.0 190.0 0 0 1 478.70 211.72L423.91 255.30A120.0 120.0 0 0 0 422.59 253.67Z" fill="#CDB428"/>
  <path d="M478.70 211.72A190.0 190.0 0 0 1 480.74 214.34L425.20 256.95A120.0 120.0 0 0 0 423.91 255.30Z" fill="#CDB728"/>
  <path d="M480.74 214.34A190.0 190.0 0 0 1 482.73 216.98L426.46 258.62A120.0 120.0 0 0 0 425.20 256.95Z" fill="#CDBA28"/>
  <path d="M482.73 216.98A190.0 190.0 0 0 1 484.68 219.67L427.69 260.32A120.0 120.0 0 0 0 426.46 258.62Z" fill="#CDBC28"/>
  <path d="M484.68 219.67A190.0 190.0 0 0 1 486.58 222.38L428.90 262.03A120.0 120.0 0 0 0 427.69 260.32Z" fill="#CDBF28"/>
  <path d="M486.58 222.38A190.0 190.0 0 0 1 488.44 225.13L430.07 263.77A120.0 120.0 0 0 0 428.90 262.03Z" fill="#CDC228"/>
  <path d="M488.44 225.13A190.0 190.0 0 0 1 490.24 227.91L431.21 265.52A120.0 120.0 0 0 0 430.07 263.77Z" fill="#CDC528"/>
  <path d="M490.24 227.91A190.0 190.0 0 0 1 492.00 230.73L432.32 267.30A120.0 120.0 0 0 0 431.21 265.52Z" fill="#CDC828"/>
  <path d="M492.00 230.73A190.0 190.0 0 0 1 493.71 233.57L433.40 269.10A120.0 120.0 0 0 0 432.32 267.30Z" fill="#CDCA28"/>
  <path d="M493.71 233.57A190.0 190.0 0 0 1 495.37 236.44L434.44 270.91A120.0 120.0 0 0 0 433.40 269.10Z" fill="#CDCD28"/>
  <path d="M495.37 236.44A190.0 190.0 0 0 1 496.98 239.34L435.46 272.74A120.0 120.0 0 0 0 434.44 270.91Z" fill="#CACD28"/>
  <path d="M496.98 239.34A190.0 190.0 0 0 1 498.53 242.27L436.44 274.59A120.0 120.0 0 0 0 435.46 272.74Z" fill="#C8CD28"/>
  <path d="M498.53 242.27A190.0 190.0 0 0 1 500.04 245.22L437.39 276.46A120.0 120.0 0 0 0 436.44 274.59Z" fill="#C5CD28"/>
  <path d="M500.04 245.22A190.0 190.0 0 0 1 501.49 248.20L438.31 278.34A120.0 120.0 0 0 0 437.39 276.46Z" fill="#C2CD28"/>
  <path d="M501.49 248.20A190.0 190.0 0 0 1 502.89 251.21L439.20 280.24A120.0 120.0 0 0 0 438.31 278.34Z" fill="#BFCD28"/>
  <path d="M502.89 251.21A190.0 190.0 0 0 1 504.24 254.24L440.05 282.15A120.0 120.0 0 0 0 439.20 280.24Z" fill="#BDCD28"/>
  <path d="M504.24 254.24A190.0 190.0 0 0 1 505.54 257.29L440.87 284.08A120.0 120.0 0 0 0 440.05 282.15Z" fill="#BACD28"/>
  <path d="M505.54 257.29A190.0 190.0 0 0 1 506.78 260.36L441.65 286.02A120.0 120.0 0 0 0 440.87 284.08Z" fill="#B7CD28"/>
  <path d="M506.78 260.36A190.0 190.0 0 0 1 507.97 263.46L442.40 287.98A120.0 120.0 0 0 0 441.65 286.02Z" fill="#B4CD28"/>
  <path d="M507.97 263.46A190.0 190.0 0 0 1 509.10 266.58L443.12 289.94A120.0 120.0 0 0 0 442.40 287.98Z" fill="#B1CD28"/>
  <path d="M509.10 266.58A190.0 190.0 0 0 1 510.18 269.71L443.80 291.92A120.0 120.0 0 0 0 443.12 289.94Z" fill="#AFCD28"/>
  <path d="M510.18 269.71A190.0 190.0 0 0 1 511.21 272.87L444.45 293.92A120.0 120.0 0 0 0 443.80 291.92Z" fill="#ACCD28"/>
  <path d="M511.21 272.87A190.0 190.0 0 0 1 512.18 276.04L445.06 295.92A120.0 120.0 0 0 0 444.45 293.92Z" fill="#A9CD28"/>
  <path d="M512.18 276.04A190.0 190.0 0 0 1 513.09 279.22L445.64 297.93A120.0 120.0 0 0 0 445.06 295.92Z" fill="#A6CD28"/>
  <path d="M513.09 279.22A190.0 190.0 0 0 1 513.95 282.43L446.18 299.95A120.0 120.0 0 0 0 445.64 297.93Z" fill="#A4CD28"/>
  <path d="M513.95 282.43A190.0 190.0 0 0 1 514.75 285.65L446.68 301.99A120.0 120.0 0 0 0 446.18 299.95Z" fill="#A1CD28"/>
  <path d="M514.75 285.65A190.0 190.0 0 0 1 515.50 288.88L447.16 304.03A120.0 120.0 0 0 0 446.68 301.99Z" fill="#9ECD28"/>
  <path d="M515.50 288.88A190.0 190.0 0 0 1 516.19 292.12L447.59 306.08A120.0 120.0 0 0 0 447.16 304.03Z" fill="#9BCD28"/>
  <path d="M516.19 292.12A190.0 190.0 0 0 1 516.82 295.38L447.99 308.13A120.0 120.0 0 0 0 447.59 306.08Z" fill="#99CD28"/>
  <path d="M516.82 295.38A190.0 190.0 0 0 1 517.39 298.64L448.35 310.19A120.0 120.0 0 0 0 447.99 308.13Z" fill="#96CD28"/>
  <path d="M517.39 298.64A190.0 190.0 0 0 1 517.91 301.92L448.68 312.26A120.0 120.0 0 0 0 448.35 310.19Z" fill="#93CD28"/>
  <path d="M517.91 301.92A190.0 190.0 0 0 1 518.37 305.20L448.97 314.34A120.0 120.0 0 0 0 448.68 312.26Z" fill="#90CD28"/>
  <path d="M518.37 305.20A190.0 190.0 0 0 1 518.78 308.49L449.23 316.42A120.0 120.0 0 0 0 448.97 314.34Z" fill="#8ECD28"/>
  <path d="M518.78 308.49A190.0 190.0 0 0 1 519.13 311.79L449.45 318.50A120.0 120.0 0 0 0 449.23 316.42Z" fill="#8BCD28"/>
  <path d="M519.13 311.79A190.0 190.0 0 0 1 519.41 315.09L449.63 320.58A120.0 120.0 0 0 0 449.45 318.50Z" fill="#88CD28"/>
  <path d="M519.41 315.09A190.0 190.0 0 0 1 519.65 318.40L449.78 322.67A120.0 120.0 0 0 0 449.63 320.58Z" fill="#86CD28"/>
  <path d="M519.65 318.40A190.0 190.0 0 0 1 519.82 321.71L449.89 324.77A120.0 120.0 0 0 0 449.78 322.67Z" fill="#83CD28"/>
  <path d="M519.82 321.71A190.0 190.0 0 0 1 519.93 325.03L449.96 326.86A120.0 120.0 0 0 0 449.89 324.77Z" fill="#80CD28"/>
  <path d="M519.93 325.03A190.0 190.0 0 0 1 519.99 328.34L450.00 328.95A120.0 120.0 0 0 0 449.96 326.86Z" fill="#7DCD28"/>
  <path d="M519.99 328.34A190.0 190.0 0 0 1 519.99 331.66L450.00 331.05A120.0 120.0 0 0 0 450.00 328.95Z" fill="#7BCD28"/>
  <path d="M519.99 331.66A190.0 190.0 0 0 1 519.93 334.97L449.96 333.14A120.0 120.0 0 0 0 450.00 331.05Z" fill="#78CD28"/>
  <path d="M519.93 334.97A190.0 190.0 0 0 1 519.82 338.29L449.89 335.23A120.0 120.0 0 0 0 449.96 333.14Z" fill="#75CD28"/>
  <path d="M519.82 338.29A190.0 190.0 0 0 1 519.65 341.60L449.78 337.33A120.0 120.0 0 0 0 449.89 335.23Z" fill="#72CD28"/>
  <path d="M519.65 341.60A190.0 190.0 0 0 1 519.41 344.91L449.63 339.42A120.0 120.0 0 0 0 449.78 337.33Z" fill="#6FCD28"/>
  <path d="M519.41 344.91A190.0 190.0 0 0 1 519.13 348.21L449.45 341.50A120.0 120.0 0 0 0 449.63 339.42Z" fill="#6DCD28"/>
  <path d="M519.13 348.21A190.0 190.0 0 0 1 518.78 351.51L449.23 343.58A120.0 120.0 0 0 0 449.45 341.50Z" fill="#6ACD28"/>
  <path d="M518.78 351.51A190.0 190.0 0 0 1 518.37 354.80L448.97 345.66A120.0 120.0 0 0 0 449.23 343.58Z" fill="#67CD28"/>
  <path d="M518.37 354.80A190.0 190.0 0 0 1 517.91 358.08L448.68 347.74A120.0 120.0 0 0 0 448.97 345.66Z" fill="#65CD28"/>
  <path d="M517.91 358.08A190.0 190.0 0 0 1 517.39 361.36L448.35 349.81A120.0 120.0 0 0 0 448.68 347.74Z" fill="#62CD28"/>
  <path d="M517.39 361.36A190.0 190.0 0 0 1 516.82 364.62L447.99 351.87A120.0 120.0 0 0 0 448.35 349.81Z" fill="#5FCD28"/>
  <path d="M516.82 364.62A190.0 190.0 0 0 1 516.19 367.88L447.59 353.92A120.0 120.0 0 0 0 447.99 351.87Z" fill="#5CCD28"/>
  <path d="M516.19 367.88A190.0 190.0 0 0 1 515.50 371.12L447.16 355.97A120.0 120.0 0 0 0 447.59 353.92Z" fill="#59CD28"/>
  <path d="M515.50 371.12A190.0 190.0 0 0 1 514.75 374.35L446.68 358.01A120.0 120.0 0 0 0 447.16 355.97Z" fill="#57CD28"/>
  <path d="M514.75 374.35A190.0 190.0 0 0 1 513.95 377.57L446.18 360.05A120.0 120.0 0 0 0 446.68 358.01Z" fill="#54CD28"/>
  <path d="M513.95 377.57A190.0 190.0 0 0 1 513.09 380.78L445.64 362.07A120.0 120.0 0 0 0 446.18 360.05Z" fill="#51CD28"/>
  <path d="M513.09 380.78A190.0 190.0 0 0 1 512.18 383.96L445.06 364.08A120.0 120.0 0 0 0 445.64 362.07Z" fill="#4ECD28"/>
  <path d="M512.18 383.96A190.0 190.0 0 0 1 511.21 387.13L444.45 366.08A120.0 120.0 0 0 0 445.06 364.08Z" fill="#4CCD28"/>
  <path d="M511.21 387.13A190.0 190.0 0 0 1 510.18 390.29L443.80 368.08A120.0 120.0 0 0 0 444.45 366.08Z" fill="#49CD28"/>
  <path d="M510.18 390.29A190.0 190.0 0 0 1 509.10 393.42L443.12 370.06A120.0 120.0 0 0 0 443.80 368.08Z" fill="#46CD28"/>
  <path d="M509.10 393.42A190.0 190.0 0 0 1 507.97 396.54L442.40 372.02A120.0 120.0 0 0 0 443.12 370.06Z" fill="#44CD28"/>
  <path d="M507.97 396.54A190.0 190.0 0 0 1 506.78 399.64L441.65 373.98A120.0 120.0 0 0 0 442.40 372.02Z" fill="#41CD28"/>
  <path d="M506.78 399.64A190.0 190.0 0 0 1 505.54 402.71L440.87 375.92A120.0 120.0 0 0 0 441.65 373.98Z" fill="#3ECD28"/>
  <path d="M505.54 402.71A190.0 190.0 0 0 1 504.24 405.76L440.05 377.85A120.0 120.0 0 0 0 440.87 375.92Z" fill="#3BCD28"/>
  <path d="M504.24 405.76A190.0 190.0 0 0 1 502.89 408.79L439.20 379.76A120.0 120.0 0 0 0 440.05 377.85Z" fill="#39CD28"/>
  <path d="M502.89 408.79A190.0 190.0 0 0 1 501.49 411.80L438.31 381.66A120.0 120.0 0 0 0 439.20 379.76Z" fill="#36CD28"/>
  <path d="M501.49 411.80A190.0 190.0 0 0 1 500.04 414.78L437.39 383.54A120.0 120.0 0 0 0 438.31 381.66Z" fill="#33CD28"/>
  <path d="M500.04 414.78A190.0 190.0 0 0 1 498.53 417.73L436.44 385.41A120.0 120.0 0 0 0 437.39 383.54Z" fill="#30CD28"/>
  <path d="M498.53 417.73A190.0 190.0 0 0 1 496.98 420.66L435.46 387.26A120.0 120.0 0 0 0 436.44 385.41Z" fill="#2DCD28"/>
  <path d="M496.98 420.66A190.0 190.0 0 0 1 495.37 423.56L434.44 389.09A120.0 120.0 0 0 0 435.46 387.26Z" fill="#2BCD28"/>
  <path d="M495.37 423.56A190.0 190.0 0 0 1 493.71 426.43L433.40 390.90A120.0 120.0 0 0 0 434.44 389.09Z" fill="#28CD28"/>
  <path d="M493.71 426.43A190.0 190.0 0 0 1 492.00 429.27L432.32 392.70A120.0 120.0 0 0 0 433.40 390.90Z" fill="#28CD2B"/>
  <path d="M492.00 429.27A190.0 190.0 0 0 1 490.24 432.09L431.21 394.48A120.0 120.0 0 0 0 432.32 392.70Z" fill="#28CD2E"/>
  <path d="M490.24 432.09A190.0 190.0 0 0 1 488.44 434.87L430.07 396.23A120.0 120.0 0 0 0 431.21 394.48Z" fill="#28CD30"/>
  <path d="M488.44 434.87A190.0 190.0 0 0 1 486.58 437.62L428.90 397.97A120.0 120.0 0 0 0 430.07 396.23Z" fill="#28CD33"/>
  <path d="M486.58 437.62A190.0 190.0 0 0 1 484.68 440.33L427.69 399.68A120.0 120.0 0 0 0 428.90 397.97Z" fill="#28CD36"/>
  <path d="M484.68 440.33A190.0 190.0 0 0 1 482.73 443.02L426.46 401.38A120.0 120.0 0 0 0 427.69 399.68Z" fill="#28CD38"/>
  <path d="M482.73 443.02A190.0 190.0 0 0 1 480.74 445.66L425.20 403.05A120.0 120.0 0 0 0 426.46 401.38Z" fill="#28CD3B"/>
  <path d="M480.74 445.66A190.0 190.0 0 0 1 478.70 448.28L423.91 404.70A120.0 120.0 0 0 0 425.20 403.05Z" fill="#28CD3E"/>
  <path d="M478.70 448.28A190.0 190.0 0 0 1 476.61 450.85L422.59 406.33A120.0 120.0 0 0 0 423.91 404.70Z" fill="#28CD41"/>
  <path d="M476.61 450.85A190.0 190.0 0 0 1 474.48 453.40L421.25 407.93A120.0 120.0 0 0 0 422.59 406.33Z" fill="#28CD44"/>
  <path d="M474.48 453.40A190.0 190.0 0 0 1 472.30 455.90L419.87 409.51A120.0 120.0 0 0 0 421.25 407.93Z" fill="#28CD46"/>
  <path d="M472.30 455.90A190.0 190.0 0 0 1 470.08 458.36L418.47 411.07A120.0 120.0 0 0 0 419.87 409.51Z" fill="#28CD49"/>
  <path d="M470.08 458.36A190.0 190.0 0 0 1 467.82 460.79L417.04 412.60A120.0 120.0 0 0 0 418.47 411.07Z" fill="#28CD4C"/>
  <path d="M467.82 460.79A190.0 190.0 0 0 1 465.52 463.17L415.59 414.11A120.0 120.0 0 0 0 417.04 412.60Z" fill="#28CD4F"/>
  <path d="M465.52 463.17A190.0 190.0 0 0 1 463.17 465.52L414.11 415.59A120.0 120.0 0 0 0 415.59 414.11Z" fill="#28CD51"/>
  <path d="M463.17 465.52A190.0 190.0 0 0 1 460.79 467.82L412.60 417.04A120.0 120.0 0 0 0 414.11 415.59Z" fill="#28CD54"/>
  <path d="M460.79 467.82A190.0 190.0 0 0 1 458.36 470.08L411.07 418.47A120.0 120.0 0 0 0 412.60 417.04Z" fill="#28CD57"/>
  <path d="M458.36 470.08A190.0 190.0 0 0 1 455.90 472.30L409.51 419.87A120.0 120.0 0 0 0 411.07 418.47Z" fill="#28CD5A"/>
  <path d="M455.90 472.30A190.0 190.0 0 0 1 453.40 474.48L407.93 421.25A120.0 120.0 0 0 0 409.51 419.87Z" fill="#28CD5C"/>
  <path d="M453.40 474.48A190.0 190.0 0 0 1 450.85 476.61L406.33 422.59A120.0 120.0 0 0 0 407.93 421.25Z" fill="#28CD5F"/>
  <path d="M450.85 476.61A190.0 190.0 0 0 1 448.28 478.70L404.70 423.91A120.0 120.0 0 0 0 406.33 422.59Z" fill="#28CD62"/>
  <path d="M448.28 478.70A190.0 190.0 0 0 1 445.66 480.74L403.05 425.20A120.0 120.0 0 0 0 404.70 423.91Z" fill="#28CD65"/>
  <path d="M445.66 480.74A190.0 190.0 0 0 1 443.02 482.73L401.38 426.46A120.0 120.0 0 0 0 403.05 425.20Z" fill="#28CD67"/>
  <path d="M443.02 482.73A190.0 190.0 0 0 1 440.33 484.68L399.68 427.69A120.0 120.0 0 0 0 401.38 426.46Z" fill="#28CD6A"/>
  <path d="M440.33 484.68A190.0 190.0 0 0 1 437.62 486.58L397.97 428.90A120.0 120.0 0 0 0 399.68 427.69Z" fill="#28CD6D"/>
  <path d="M437.62 486.58A190.0 190.0 0 0 1 434.87 488.44L396.23 430.07A120.0 120.0 0 0 0 397.97 428.90Z" fill="#28CD70"/>
  <path d="M434.87 488.44A190.0 190.0 0 0 1 432.09 490.24L394.48 431.21A120.0 120.0 0 0 0 396.23 430.07Z" fill="#28CD72"/>
  <path d="M432.09 490.24A190.0 190.0 0 0 1 429.27 492.00L392.70 432.32A120.0 120.0 0 0 0 394.48 431.21Z" fill="#28CD75"/>
  <path d="M429.27 492.00A190.0 190.0 0 0 1 426.43 493.71L390.90 433.40A120.0 120.0 0 0 0 392.70 432.32Z" fill="#28CD78"/>
  <path d="M426.43 493.71A190.0 190.0 0 0 1 423.56 495.37L389.09 434.44A120.0 120.0 0 0 0 390.90 433.40Z" fill="#28CD7B"/>
  <path d="M423.56 495.37A190.0 190.0 0 0 1 420.66 496.98L387.26 435.46A120.0 120.0 0 0 0 389.09 434.44Z" fill="#28CD7D"/>
  <path d="M420.66 496.98A190.0 190.0 0 0 1 417.73 498.53L385.41 436.44A120.0 120.0 0 0 0 387.26 435.46Z" fill="#28CD80"/>
  <path d="M417.73 498.53A190.0 190.0 0 0 1 414.78 500.04L383.54 437.39A120.0 120.0 0 0 0 385.41 436.44Z" fill="#28CD83"/>
  <path d="M414.78 500.04A190.0 190.0 0 0 1 411.80 501.49L381.66 438.31A120.0 120.0 0 0 0 383.54 437.39Z" fill="#28CD86"/>
  <path d="M411.80 501.49A190.0 190.0 0 0 1 408.79 502.89L379.76 439.20A120.0 120.0 0 0 0 381.66 438.31Z" fill="#28CD88"/>
  <path d="M408.79 502.89A190.0 190.0 0 0 1 405.76 504.24L377.85 440.05A120.0 120.0 0 0 0 379.76 439.20Z" fill="#28CD8B"/>
  <path d="M405.76 504.24A190.0 190.0 0 0 1 402.71 505.54L375.92 440.87A120.0 120.0 0 0 0 377.85 440.05Z" fill="#28CD8E"/>
  <path d="M402.71 505.54A190.0 190.0 0 0 1 399.64 506.78L373.98 441.65A120.0 120.0 0 0 0 375.92 440.87Z" fill="#28CD90"/>
  <path d="M399.64 506.78A190.0 190.0 0 0 1 396.54 507.97L372.02 442.40A120.0 120.0 0 0 0 373.98 441.65Z" fill="#28CD93"/>
  <path d="M396.54 507.97A190.0 190.0 0 0 1 393.42 509.10L370.06 443.12A120.0 120.0 0 0 0 372.02 442.40Z" fill="#28CD96"/>
  <path d="M393.42 509.10A190.0 190.0 0 0 1 390.29 510.18L368.08 443.80A120.0 120.0 0 0 0 370.06 443.12Z" fill="#28CD99"/>
  <path d="M390.29 510.18A190.0 190.0 0 0 1 387.13 511.21L366.08 444.45A120.0 120.0 0 0 0 368.08 443.80Z" fill="#28CD9C"/>
  <path d="M387.13 511.21A190.0 190.0 0 0 1 383.96 512.18L364.08 445.06A120.0 120.0 0 0 0 366.08 444.45Z" fill="#28CD9E"/>
  <path d="M383.96 512.18A190.0 190.0 0 0 1 380.78 513.09L362.07 445.64A120.0 120.0 0 0 0 364.08 445.06Z" fill="#28CDA1"/>
  <path d="M380.78 513.09A190.0 190.0 0 0 1 377.57 513.95L360.05 446.18A120.0 120.0 0 0 0 362.07 445.64Z" fill="#28CDA4"/>
  <path d="M377.57 513.95A190.0 190.0 0 0 1 374.35 514.75L358.01 446.68A120.0 120.0 0 0 0 360.05 446.18Z" fill="#28CDA7"/>
  <path d="M374.35 514.75A190.0 190.0 0 0 1 371.12 515.50L355.97 447.16A120.0 120.0 0 0 0 358.01 446.68Z" fill="#28CDA9"/>
  <path d="M371.12 515.50A190.0 190.0 0 0 1 367.88 516.19L353.92 447.59A120.0 120.0 0 0 0 355.97 447.16Z" fill="#28CDAC"/>
  <path d="M367.88 516.19A190.0 190.0 0 0 1 364.62 516.82L351.87 447.99A120.0 120.0 0 0 0 353.92 447.59Z" fill="#28CDAF"/>
  <path d="M364.62 516.82A190.0 190.0 0 0 1 361.36 517.39L349.81 448.35A120.0 120.0 0 0 0 351.87 447.99Z" fill="#28CDB2"/>
  <path d="M361.36 517.39A190.0 190.0 0 0 1 358.08 517.91L347.74 448.68A120.0 120.0 0 0 0 349.81 448.35Z" fill="#28CDB4"/>
  <path d="M358.08 517.91A190.0 190.0 0 0 1 354.80 518.37L345.66 448.97A120.0 120.0 0 0 0 347.74 448.68Z" fill="#28CDB7"/>
  <path d="M354.80 518.37A190.0 190.0 0 0 1 351.51 518.78L343.58 449.23A120.0 120.0 0 0 0 345.66 448.97Z" fill="#28CDBA"/>
  <path d="M351.51 518.78A190.0 190.0 0 0 1 348.21 519.13L341.50 449.45A120.0 120.0 0 0 0 343.58 449.23Z" fill="#28CDBD"/>
  <path d="M348.21 519.13A190.0 190.0 0 0 1 344.91 519.41L339.42 449.63A120.0 120.0 0 0 0 341.50 449.45Z" fill="#28CDBF"/>
  <path d="M344.91 519.41A190.0 190.0 0 0 1 341.60 519.65L337.33 449.78A120.0 120.0 0 0 0 339.42 449.63Z" fill="#28CDC2"/>
  <path d="M341.60 519.65A190.0 190.0 0 0 1 338.29 519.82L335.23 449.89A120.0 120.0 0 0 0 337.33 449.78Z" fill="#28CDC5"/>
  <path d="M338.29 519.82A190.0 190.0 0 0 1 334.97 519.93L333.14 449.96A120.0 120.0 0 0 0 335.23 449.89Z" fill="#28CDC8"/>
  <path d="M334.97 519.93A190.0 190.0 0 0 1 331.66 519.99L331.05 450.00A120.0 120.0 0 0 0 333.14 449.96Z" fill="#28CDCA"/>
  <path d="M331.66 519.99A190.0 190.0 0 0 1 328.34 519.99L328.95 450.00A120.0 120.0 0 0 0 331.05 450.00Z" fill="#28CDCD"/>
  <path d="M328.34 519.99A190.0 190.0 0 0 1 325.03 519.93L326.86 449.96A120.0 120.0 0 0 0 328.95 450.00Z" fill="#28CACD"/>
  <path d="M325.03 519.93A190.0 190.0 0 0 1 321.71 519.82L324.77 449.89A120.0 120.0 0 0 0 326.86 449.96Z" fill="#28C8CD"/>
  <path d="M321.71 519.82A190.0 190.0 0 0 1 318.40 519.65L322.67 449.78A120.0 120.0 0 0 0 324.77 449.89Z" fill="#28C5CD"/>
  <path d="M318.40 519.65A190.0 190.0 0 0 1 315.09 519.41L320.58 449.63A120.0 120.0 0 0 0 322.67 449.78Z" fill="#28C2CD"/>
  <path d="M315.09 519.41A190.0 190.0 0 0 1 311.79 519.13L318.50 449.45A120.0 120.0 0 0 0 320.58 449.63Z" fill="#28BFCD"/>
  <path d="M311.79 519.13A190.0 190.0 0 0 1 308.49 518.78L316.42 449.23A120.0 120.0 0 0 0 318.50 449.45Z" fill="#28BCCD"/>
  <path d="M308.49 518.78A190.0 190.0 0 0 1 305.20 518.37L314.34 448.97A120.0 120.0 0 0 0 316.42 449.23Z" fill="#28BACD"/>
  <path d="M305.20 518.37A190.0 190.0 0 0 1 301.92 517.91L312.26 448.68A120.0 120.0 0 0 0 314.34 448.97Z" fill="#28B7CD"/>
  <path d="M301.92 517.91A190.0 190.0 0 0 1 298.64 517.39L310.19 448.35A120.0 120.0 0 0 0 312.26 448.68Z" fill="#28B4CD"/>
  <path d="M298.64 517.39A190.0 190.0 0 0 1 295.38 516.82L308.13 447.99A120.0 120.0 0 0 0 310.19 448.35Z" fill="#28B1CD"/>
  <path d="M295.38 516.82A190.0 190.0 0 0 1 292.12 516.19L306.08 447.59A120.0 120.0 0 0 0 308.13 447.99Z" fill="#28AFCD"/>
  <path d="M292.12 516.19A190.0 190.0 0 0 1 288.88 515.50L304.03 447.16A120.0 120.0 0 0 0 306.08 447.59Z" fill="#28ACCD"/>
  <path d="M288.88 515.50A190.0 190.0 0 0 1 285.65 514.75L301.99 446.68A120.0 120.0 0 0 0 304.03 447.16Z" fill="#28A9CD"/>
  <path d="M285.65 514.75A190.0 190.0 0 0 1 282.43 513.95L299.95 446.18A120.0 120.0 0 0 0 301.99 446.68Z" fill="#28A6CD"/>
  <path d="M282.43 513.95A190.0 190.0 0 0 1 279.22 513.09L297.93 445.64A120.0 120.0 0 0 0 299.95 446.18Z" fill="#28A4CD"/>
  <path d="M279.22 513.09A190.0 190.0 0 0 1 276.04 512.18L295.92 445.06A120.0 120.0 0 0 0 297.93 445.64Z" fill="#28A1CD"/>
  <path d="M276.04 512.18A190.0 190.0 0 0 1 272.87 511.21L293.92 444.45A120.0 120.0 0 0 0 295.92 445.06Z" fill="#289ECD"/>
  <path d="M272.87 511.21A190.0 190.0 0 0 1 269.71 510.18L291.92 443.80A120.0 120.0 0 0 0 293.92 444.45Z" fill="#289BCD"/>
  <path d="M269.71 510.18A190.0 190.0 0 0 1 266.58 509.10L289.94 443.12A120.0 120.0 0 0 0 291.92 443.80Z" fill="#2899CD"/>
  <path d="M266.58 509.10A190.0 190.0 0 0 1 263.46 507.97L287.98 442.40A120.0 120.0 0 0 0 289.94 443.12Z" fill="#2896CD"/>
  <path d="M263.46 507.97A190.0 190.0 0 0 1 260.36 506.78L286.02 441.65A120.0 120.0 0 0 0 287.98 442.40Z" fill="#2893CD"/>
  <path d="M260.36 506.78A190.0 190.0 0 0 1 257.29 505.54L284.08 440.87A120.0 120.0 0 0 0 286.02 441.65Z" fill="#2890CD"/>
  <path d="M257.29 505.54A190.0 190.0 0 0 1 254.24 504.24L282.15 440.05A120.0 120.0 0 0 0 284.08 440.87Z" fill="#288ECD"/>
  <path d="M254.24 504.24A190.0 190.0 0 0 1 251.21 502.89L280.24 439.20A120.0 120.0 0 0 0 282.15 440.05Z" fill="#288BCD"/>
  <path d="M251.21 502.89A190.0 190.0 0 0 1 248.20 501.49L278.34 438.31A120.0 120.0 0 0 0 280.24 439.20Z" fill="#2888CD"/>
  <path d="M248.20 501.49A190.0 190.0 0 0 1 245.22 500.04L276.46 437.39A120.0 120.0 0 0 0 278.34 438.31Z" fill="#2886CD"/>
  <path d="M245.22 500.04A190.0 190.0 0 0 1 242.27 498.53L274.59 436.44A120.0 120.0 0 0 0 276.46 437.39Z" fill="#2883CD"/>
  <path d="M242.27 498.53A190.0 190.0 0 0 1 239.34 496.98L272.74 435.46A120.0 120.0 0 0 0 274.59 436.44Z" fill="#2880CD"/>
  <path d="M239.34 496.98A190.0 190.0 0 0 1 236.44 495.37L270.91 434.44A120.0 120.0 0 0 0 272.74 435.46Z" fill="#287DCD"/>
  <path d="M236.44 495.37A190.0 190.0 0 0 1 233.57 493.71L269.10 433.40A120.0 120.0 0 0 0 270.91 434.44Z" fill="#287ACD"/>
  <path d="M233.57 493.71A190.0 190.0 0 0 1 230.73 492.00L267.30 432.32A120.0 120.0 0 0 0 269.10 433.40Z" fill="#2878CD"/>
  <path d="M230.73 492.00A190.0 190.0 0 0 1 227.91 490.24L265.52 431.21A120.0 120.0 0 0 0 267.30 432.32Z" fill="#2875CD"/>
  <path d="M227.91 490.24A190.0 190.0 0 0 1 225.13 488.44L263.77 430.07A120.0 120.0 0 0 0 265.52 431.21Z" fill="#2872CD"/>
  <path d="M225.13 488.44A190.0 190.0 0 0 1 222.38 486.58L262.03 428.90A120.0 120.0 0 0 0 263.77 430.07Z" fill="#286FCD"/>
  <path d="M222.38 486.58A190.0 190.0 0 0 1 219.67 484.68L260.32 427.69A120.0 120.0 0 0 0 262.03 428.90Z" fill="#286DCD"/>
  <path d="M219.67 484.68A190.0 190.0 0 0 1 216.98 482.73L258.62 426.46A120.0 120.0 0 0 0 260.32 427.69Z" fill="#286ACD"/>
  <path d="M216.98 482.73A190.0 190.0 0 0 1 214.34 480.74L256.95 425.20A120.0 120.0 0 0 0 258.62 426.46Z" fill="#2867CD"/>
  <path d="M214.34 480.74A190.0 190.0 0 0 1 211.72 478.70L255.30 423.91A120.0 120.0 0 0 0 256.95 425.20Z" fill="#2865CD"/>
  <path d="M211.72 478.70A190.0 190.0 0 0 1 209.15 476.61L253.67 422.59A120.0 120.0 0 0 0 255.30 423.91Z" fill="#2862CD"/>
  <path d="M209.15 476.61A190.0 190.0 0 0 1 206.60 474.48L252.07 421.25A120.0 120.0 0 0 0 253.67 422.59Z" fill="#285FCD"/>
  <path d="M206.60 474.48A190.0 190.0 0 0 1 204.10 472.30L250.49 419.87A120.0 120.0 0 0 0 252.07 421.25Z" fill="#285CCD"/>
  <path d="M204.10 472.30A190.0 190.0 0 0 1 201.64 470.08L248.93 418.47A120.0 120.0 0 0 0 250.49 419.87Z" fill="#2859CD"/>
  <path d="M201.64 470.08A190.0 190.0 0 0 1 199.21 467.82L247.40 417.04A120.0 120.0 0 0 0 248.93 418.47Z" fill="#2857CD"/>
  <path d="M199.21 467.82A190.0 190.0 0 0 1 196.83 465.52L245.89 415.59A120.0 120.0 0 0 0 247.40 417.04Z" fill="#2854CD"/>
  <path d="M196.83 465.52A190.0 190.0 0 0 1 194.48 463.17L244.41 414.11A120.0 120.0 0 0 0 245.89 415.59Z" fill="#2851CD"/>
  <path d="M194.48 463.17A190.0 190.0 0 0 1 192.18 460.79L242.96 412.60A120.0 120.0 0 0 0 244.41 414.11Z" fill="#284ECD"/>
  <path d="M192.18 460.79A190.0 190.0 0 0 1 189.92 458.36L241.53 411.07A120.0 120.0 0 0 0 242.96 412.60Z" fill="#284CCD"/>
  <path d="M189.92 458.36A190.0 190.0 0 0 1 187.70 455.90L240.13 409.51A120.0 120.0 0 0 0 241.53 411.07Z" fill="#2849CD"/>
  <path d="M187.70 455.90A190.0 190.0 0 0 1 185.52 453.40L238.75 407.93A120.0 120.0 0 0 0 240.13 409.51Z" fill="#2846CD"/>
  <path d="M185.52 453.40A190.0 190.0 0 0 1 183.39 450.85L237.41 406.33A120.0 120.0 0 0 0 238.75 407.93Z" fill="#2844CD"/>
  <path d="M183.39 450.85A190.0 190.0 0 0 1 181.30 448.28L236.09 404.70A120.0 120.0 0 0 0 237.41 406.33Z" fill="#2841CD"/>
  <path d="M181.30 448.28A190.0 190.0 0 0 1 179.26 445.66L234.80 403.05A120.0 120.0 0 0 0 236.09 404.70Z" fill="#283ECD"/>
  <path d="M179.26 445.66A190.0 190.0 0 0 1 177.27 443.02L233.54 401.38A120.0 120.0 0 0 0 234.80 403.05Z" fill="#283BCD"/>
  <path d="M177.27 443.02A190.0 190.0 0 0 1 175.32 440.33L232.31 399.68A120.0 120.0 0 0 0 233.54 401.38Z" fill="#2838CD"/>
  <path d="M175.32 440.33A190.0 190.0 0 0 1 173.42 437.62L231.10 397.97A120.0 120.0 0 0 0 232.31 399.68Z" fill="#2836CD"/>
  <path d="M173.42 437.62A190.0 190.0 0 0 1 171.56 434.87L229.93 396.23A120.0 120.0 0 0 0 231.10 397.97Z" fill="#2833CD"/>
  <path d="M171.56 434.87A190.0 190.0 0 0 1 169.76 432.09L228.79 394.48A120.0 120.0 0 0 0 229.93 396.23Z" fill="#2830CD"/>
  <path d="M169.76 432.09A190.0 190.0 0 0 1 168.00 429.27L227.68 392.70A120.0 120.0 0 0 0 228.79 394.48Z" fill="#282DCD"/>
  <path d="M168.00 429.27A190.0 190.0 0 0 1 166.29 426.43L226.60 390.90A120.0 120.0 0 0 0 227.68 392.70Z" fill="#282BCD"/>
  <path d="M166.29 426.43A190.0 190.0 0 0 1 164.63 423.56L225.56 389.09A120.0 120.0 0 0 0 226.60 390.90Z" fill="#2828CD"/>
  <path d="M164.63 423.56A190.0 190.0 0 0 1 163.02 420.66L224.54 387.26A120.0 120.0 0 0 0 225.56 389.09Z" fill="#2B28CD"/>
  <path d="M163.02 420.66A190.0 190.0 0 0 1 161.47 417.73L223.56 385.41A120.0 120.0 0 0 0 224.54 387.26Z" fill="#2D28CD"/>
  <path d="M161.47 417.73A190.0 190.0 0 0 1 159.96 414.78L222.61 383.54A120.0 120.0 0 0 0 223.56 385.41Z" fill="#3028CD"/>
  <path d="M159.96 414.78A190.0 190.0 0 0 1 158.51 411.80L221.69 381.66A120.0 120.0 0 0 0 222.61 383.54Z" fill="#3328CD"/>
  <path d="M158.51 411.80A190.0 190.0 0 0 1 157.11 408.79L220.80 379.76A120.0 120.0 0 0 0 221.69 381.66Z" fill="#3628CD"/>
  <path d="M157.11 408.79A190.0 190.0 0 0 1 155.76 405.76L219.95 377.85A120.0 120.0 0 0 0 220.80 379.76Z" fill="#3828CD"/>
  <path d="M155.76 405.76A190.0 190.0 0 0 1 154.46 402.71L219.13 375.92A120.0 120.0 0 0 0 219.95 377.85Z" fill="#3B28CD"/>
  <path d="M154.46 402.71A190.0 190.0 0 0 1 153.22 399.64L218.35 373.98A120.0 120.0 0 0 0 219.13 375.92Z" fill="#3E28CD"/>
  <path d="M153.22 399.64A190.0 190.0 0 0 1 152.03 396.54L217.60 372.02A120.0 120.0 0 0 0 218.35 373.98Z" fill="#4128CD"/>
  <path d="M152.03 396.54A190.0 190.0 0 0 1 150.90 393.42L216.88 370.06A120.0 120.0 0 0 0 217.60 372.02Z" fill="#4328CD"/>
  <path d="M150.90 393.42A190.0 190.0 0 0 1 149.82 390.29L216.20 368.08A120.0 120.0 0 0 0 216.88 370.06Z" fill="#4628CD"/>
  <path d="M149.82 390.29A190.0 190.0 0 0 1 148.79 387.13L215.55 366.08A120.0 120.0 0 0 0 216.20 368.08Z" fill="#4928CD"/>
  <path d="M148.79 387.13A190.0 190.0 0 0 1 147.82 383.96L214.94 364.08A120.0 120.0 0 0 0 215.55 366.08Z" fill="#4C28CD"/>
  <path d="M147.82 383.96A190.0 190.0 0 0 1 146.91 380.78L214.36 362.07A120.0 120.0 0 0 0 214.94 364.08Z" fill="#4F28CD"/>
  <path d="M146.91 380.78A190.0 190.0 0 0 1 146.05 377.57L213.82 360.05A120.0 120.0 0 0 0 214.36 362.07Z" fill="#5128CD"/>
  <path d="M146.05 377.57A190.0 190.0 0 0 1 145.25 374.35L213.32 358.01A120.0 120.0 0 0 0 213.82 360.05Z" fill="#5428CD"/>
  <path d="M145.25 374.35A190.0 190.0 0 0 1 144.50 371.12L212.84 355.97A120.0 120.0 0 0 0 213.32 358.01Z" fill="#5728CD"/>
  <path d="M144.50 371.12A190.0 190.0 0 0 1 143.81 367.88L212.41 353.92A120.0 120.0 0 0 0 212.84 355.97Z" fill="#5A28CD"/>
  <path d="M143.81 367.88A190.0 190.0 0 0 1 143.18 364.62L212.01 351.87A120.0 120.0 0 0 0 212.41 353.92Z" fill="#5C28CD"/>
  <path d="M143.18 364.62A190.0 190.0 0 0 1 142.61 361.36L211.65 349.81A120.0 120.0 0 0 0 212.01 351.87Z" fill="#5F28CD"/>
  <path d="M142.61 361.36A190.0 190.0 0 0 1 142.09 358.08L211.32 347.74A120.0 120.0 0 0 0 211.65 349.81Z" fill="#6228CD"/>
  <path d="M142.09 358.08A190.0 190.0 0 0 1 141.63 354.80L211.03 345.66A120.0 120.0 0 0 0 211.32 347.74Z" fill="#6528CD"/>
  <path d="M141.63 354.80A190.0 190.0 0 0 1 141.22 351.51L210.77 343.58A120.0 120.0 0 0 0 211.03 345.66Z" fill="#6728CD"/>
  <path d="M141.22 351.51A190.0 190.0 0 0 1 140.87 348.21L210.55 341.50A120.0 120.0 0 0 0 210.77 343.58Z" fill="#6A28CD"/>
  <path d="M140.87 348.21A190.0 190.0 0 0 1 140.59 344.91L210.37 339.42A120.0 120.0 0 0 0 210.55 341.50Z" fill="#6D28CD"/>
  <path d="M140.59 344.91A190.0 190.0 0 0 1 140.35 341.60L210.22 337.33A120.0 120.0 0 0 0 210.37 339.42Z" fill="#6F28CD"/>
  <path d="M140.35 341.60A190.0 190.0 0 0 1 140.18 338.29L210.11 335.23A120.0 120.0 0 0 0 210.22 337.33Z" fill="#7228CD"/>
  <path d="M140.18 338.29A190.0 190.0 0 0 1 140.07 334.97L210.04 333.14A120.0 120.0 0 0 0 210.11 335.23Z" fill="#7528CD"/>
  <path d="M140.07 334.97A190.0 190.0 0 0 1 140.01 331.66L210.00 331.05A120.0 120.0 0 0 0 210.04 333.14Z" fill="#7828CD"/>
  <path d="M140.01 331.66A190.0 190.0 0 0 1 140.01 328.34L210.00 328.95A120.0 120.0 0 0 0 210.00 331.05Z" fill="#7A28CD"/>
  <path d="M140.01 328.34A190.0 190.0 0 0 1 140.07 325.03L210.04 326.86A120.0 120.0 0 0 0 210.00 328.95Z" fill="#7D28CD"/>
  <path d="M140.07 325.03A190.0 190.0 0 0 1 140.18 321.71L210.11 324.77A120.0 120.0 0 0 0 210.04 326.86Z" fill="#8028CD"/>
  <path d="M140.18 321.71A190.0 190.0 0 0 1 140.35 318.40L210.22 322.67A120.0 120.0 0 0 0 210.11 324.77Z" fill="#8328CD"/>
  <path d="M140.35 318.40A190.0 190.0 0 0 1 140.59 315.09L210.37 320.58A120.0 120.0 0 0 0 210.22 322.67Z" fill="#8528CD"/>
  <path d="M140.59 315.09A190.0 190.0 0 0 1 140.87 311.79L210.55 318.50A120.0 120.0 0 0 0 210.37 320.58Z" fill="#8828CD"/>
  <path d="M140.87 311.79A190.0 190.0 0 0 1 141.22 308.49L210.77 316.42A120.0 120.0 0 0 0 210.55 318.50Z" fill="#8B28CD"/>
  <path d="M141.22 308.49A190.0 190.0 0 0 1 141.63 305.20L211.03 314.34A120.0 120.0 0 0 0 210.77 316.42Z" fill="#8E28CD"/>
  <path d="M141.63 305.20A190.0 190.0 0 0 1 142.09 301.92L211.32 312.26A120.0 120.0 0 0 0 211.03 314.34Z" fill="#9128CD"/>
  <path d="M142.09 301.92A190.0 190.0 0 0 1 142.61 298.64L211.65 310.19A120.0 120.0 0 0 0 211.32 312.26Z" fill="#9328CD"/>
  <path d="M142.61 298.64A190.0 190.0 0 0 1 143.18 295.38L212.01 308.13A120.0 120.0 0 0 0 211.65 310.19Z" fill="#9628CD"/>
  <path d="M143.18 295.38A190.0 190.0 0 0 1 143.81 292.12L212.41 306.08A120.0 120.0 0 0 0 212.01 308.13Z" fill="#9928CD"/>
  <path d="M143.81 292.12A190.0 190.0 0 0 1 144.50 288.88L212.84 304.03A120.0 120.0 0 0 0 212.41 306.08Z" fill="#9C28CD"/>
  <path d="M144.50 288.88A190.0 190.0 0 0 1 145.25 285.65L213.32 301.99A120.0 120.0 0 0 0 212.84 304.03Z" fill="#9E28CD"/>
  <path d="M145.25 285.65A190.0 190.0 0 0 1 146.05 282.43L213.82 299.95A120.0 120.0 0 0 0 213.32 301.99Z" fill="#A128CD"/>
  <path d="M146.05 282.43A190.0 190.0 0 0 1 146.91 279.22L214.36 297.93A120.0 120.0 0 0 0 213.82 299.95Z" fill="#A428CD"/>
  <path d="M146.91 279.22A190.0 190.0 0 0 1 147.82 276.04L214.94 295.92A120.0 120.0 0 0 0 214.36 297.93Z" fill="#A628CD"/>
  <path d="M147.82 276.04A190.0 190.0 0 0 1 148.79 272.87L215.55 293.92A120.0 120.0 0 0 0 214.94 295.92Z" fill="#A928CD"/>
  <path d="M148.79 272.87A190.0 190.0 0 0 1 149.82 269.71L216.20 291.92A120.0 120.0 0 0 0 215.55 293.92Z" fill="#AC28CD"/>
  <path d="M149.82 269.71A190.0 190.0 0 0 1 150.90 266.58L216.88 289.94A120.0 120.0 0 0 0 216.20 291.92Z" fill="#AF28CD"/>
  <path d="M150.90 266.58A190.0 190.0 0 0 1 152.03 263.46L217.60 287.98A120.0 120.0 0 0 0 216.88 289.94Z" fill="#B128CD"/>
  <path d="M152.03 263.46A190.0 190.0 0 0 1 153.22 260.36L218.35 286.02A120.0 120.0 0 0 0 217.60 287.98Z" fill="#B428CD"/>
  <path d="M153.22 260.36A190.0 190.0 0 0 1 154.46 257.29L219.13 284.08A120.0 120.0 0 0 0 218.35 286.02Z" fill="#B728CD"/>
  <path d="M154.46 257.29A190.0 190.0 0 0 1 155.76 254.24L219.95 282.15A120.0 120.0 0 0 0 219.13 284.08Z" fill="#BA28CD"/>
  <path d="M155.76 254.24A190.0 190.0 0 0 1 157.11 251.21L220.80 280.24A120.0 120.0 0 0 0 219.95 282.15Z" fill="#BC28CD"/>
  <path d="M157.11 251.21A190.0 190.0 0 0 1 158.51 248.20L221.69 278.34A120.0 120.0 0 0 0 220.80 280.24Z" fill="#BF28CD"/>
  <path d="M158.51 248.20A190.0 190.0 0 0 1 159.96 245.22L222.61 276.46A120.0 120.0 0 0 0 221.69 278.34Z" fill="#C228CD"/>
  <path d="M159.96 245.22A190.0 190.0 0 0 1 161.47 242.27L223.56 274.59A120.0 120.0 0 0 0 222.61 276.46Z" fill="#C528CD"/>
  <path d="M161.47 242.27A190.0 190.0 0 0 1 163.02 239.34L224.54 272.74A120.0 120.0 0 0 0 223.56 274.59Z" fill="#C728CD"/>
  <path d="M163.02 239.34A190.0 190.0 0 0 1 164.63 236.44L225.56 270.91A120.0 120.0 0 0 0 224.54 272.74Z" fill="#CA28CD"/>
  <path d="M164.63 236.44A190.0 190.0 0 0 1 166.29 233.57L226.60 269.10A120.0 120.0 0 0 0 225.56 270.91Z" fill="#CD28CD"/>
  <path d="M166.29 233.57A190.0 190.0 0 0 1 168.00 230.73L227.68 267.30A120.0 120.0 0 0 0 226.60 269.10Z" fill="#CD28CA"/>
  <path d="M168.00 230.73A190.0 190.0 0 0 1 169.76 227.91L228.79 265.52A120.0 120.0 0 0 0 227.68 267.30Z" fill="#CD28C8"/>
  <path d="M169.76 227.91A190.0 190.0 0 0 1 171.56 225.13L229.93 263.77A120.0 120.0 0 0 0 228.79 265.52Z" fill="#CD28C5"/>
  <path d="M171.56 225.13A190.0 190.0 0 0 1 173.42 222.38L231.10 262.03A120.0 120.0 0 0 0 229.93 263.77Z" fill="#CD28C2"/>
  <path d="M173.42 222.38A190.0 190.0 0 0 1 175.32 219.67L232.31 260.32A120.0 120.0 0 0 0 231.10 262.03Z" fill="#CD28BF"/>
  <path d="M175.32 219.67A190.0 190.0 0 0 1 177.27 216.98L233.54 258.62A120.0 120.0 0 0 0 232.31 260.32Z" fill="#CD28BD"/>
  <path d="M177.27 216.98A190.0 190.0 0 0 1 179.26 214.34L234.80 256.95A120.0 120.0 0 0 0 233.54 258.62Z" fill="#CD28BA"/>
  <path d="M179.26 214.34A190.0 190.0 0 0 1 181.30 211.72L236.09 255.30A120.0 120.0 0 0 0 234.80 256.95Z" fill="#CD28B7"/>
  <path d="M181.30 211.72A190.0 190.0 0 0 1 183.39 209.15L237.41 253.67A120.0 120.0 0 0 0 236.09 255.30Z" fill="#CD28B4"/>
  <path d="M183.39 209.15A190.0 190.0 0 0 1 185.52 206.60L238.75 252.07A120.0 120.0 0 0 0 237.41 253.67Z" fill="#CD28B1"/>
  <path d="M185.52 206.60A190.0 190.0 0 0 1 187.70 204.10L240.13 250.49A120.0 120.0 0 0 0 238.75 252.07Z" fill="#CD28AF"/>
  <path d="M187.70 204.10A190.0 190.0 0 0 1 189.92 201.64L241.53 248.93A120.0 120.0 0 0 0 240.13 250.49Z" fill="#CD28AC"/>
  <path d="M189.92 201.64A190.0 190.0 0 0 1 192.18 199.21L242.96 247.40A120.0 120.0 0 0 0 241.53 248.93Z" fill="#CD28A9"/>
  <path d="M192.18 199.21A190.0 190.0 0 0 1 194.48 196.83L244.41 245.89A120.0 120.0 0 0 0 242.96 247.40Z" fill="#CD28A6"/>
  <path d="M194.48 196.83A190.0 190.0 0 0 1 196.83 194.48L245.89 244.41A120.0 120.0 0 0 0 244.41 245.89Z" fill="#CD28A4"/>
  <path d="M196.83 194.48A190.0 190.0 0 0 1 199.21 192.18L247.40 242.96A120.0 120.0 0 0 0 245.89 244.41Z" fill="#CD28A1"/>
  <path d="M199.21 192.18A190.0 190.0 0 0 1 201.64 189.92L248.93 241.53A120.0 120.0 0 0 0 247.40 242.96Z" fill="#CD289E"/>
  <path d="M201.64 189.92A190.0 190.0 0 0 1 204.10 187.70L250.49 240.13A120.0 120.0 0 0 0 248.93 241.53Z" fill="#CD289B"/>
  <path d="M204.10 187.70A190.0 190.0 0 0 1 206.60 185.52L252.07 238.75A120.0 120.0 0 0 0 250.49 240.13Z" fill="#CD2899"/>
  <path d="M206.60 185.52A190.0 190.0 0 0 1 209.15 183.39L253.67 237.41A120.0 120.0 0 0 0 252.07 238.75Z" fill="#CD2896"/>
  <path d="M209.15 183.39A190.0 190.0 0 0 1 211.72 181.30L255.30 236.09A120.0 120.0 0 0 0 253.67 237.41Z" fill="#CD2893"/>
  <path d="M211.72 181.30A190.0 190.0 0 0 1 214.34 179.26L256.95 234.80A120.0 120.0 0 0 0 255.30 236.09Z" fill="#CD2890"/>
  <path d="M214.34 179.26A190.0 190.0 0 0 1 216.98 177.27L258.62 233.54A120.0 120.0 0 0 0 256.95 234.80Z" fill="#CD288E"/>
  <path d="M216.98 177.27A190.0 190.0 0 0 1 219.67 175.32L260.32 232.31A120.0 120.0 0 0 0 258.62 233.54Z" fill="#CD288B"/>
  <path d="M219.67 175.32A190.0 190.0 0 0 1 222.38 173.42L262.03 231.10A120.0 120.0 0 0 0 260.32 232.31Z" fill="#CD2888"/>
  <path d="M222.38 173.42A190.0 190.0 0 0 1 225.13 171.56L263.77 229.93A120.0 120.0 0 0 0 262.03 231.10Z" fill="#CD2886"/>
  <path d="M225.13 171.56A190.0 190.0 0 0 1 227.91 169.76L265.52 228.79A120.0 120.0 0 0 0 263.77 229.93Z" fill="#CD2883"/>
  <path d="M227.91 169.76A190.0 190.0 0 0 1 230.73 168.00L267.30 227.68A120.0 120.0 0 0 0 265.52 228.79Z" fill="#CD2880"/>
  <path d="M230.73 168.00A190.0 190.0 0 0 1 233.57 166.29L269.10 226.60A120.0 120.0 0 0 0 267.30 227.68Z" fill="#CD287D"/>
  <path d="M233.57 166.29A190.0 190.0 0 0 1 236.44 164.63L270.91 225.56A120.0 120.0 0 0 0 269.10 226.60Z" fill="#CD287B"/>
  <path d="M236.44 164.63A190.0 190.0 0 0 1 239.34 163.02L272.74 224.54A120.0 120.0 0 0 0 270.91 225.56Z" fill="#CD2878"/>
  <path d="M239.34 163.02A190.0 190.0 0 0 1 242.27 161.47L274.59 223.56A120.0 120.0 0 0 0 272.74 224.54Z" fill="#CD2875"/>
  <path d="M242.27 161.47A190.0 190.0 0 0 1 245.22 159.96L276.46 222.61A120.0 120.0 0 0 0 274.59 223.56Z" fill="#CD2872"/>
  <path d="M245.22 159.96A190.0 190.0 0 0 1 248.20 158.51L278.34 221.69A120.0 120.0 0 0 0 276.46 222.61Z" fill="#CD286F"/>
  <path d="M248.20 158.51A190.0 190.0 0 0 1 251.21 157.11L280.24 220.80A120.0 120.0 0 0 0 278.34 221.69Z" fill="#CD286D"/>
  <path d="M251.21 157.11A190.0 190.0 0 0 1 254.24 155.76L282.15 219.95A120.0 120.0 0 0 0 280.24 220.80Z" fill="#CD286A"/>
  <path d="M254.24 155.76A190.0 190.0 0 0 1 257.29 154.46L284.08 219.13A120.0 120.0 0 0 0 282.15 219.95Z" fill="#CD2867"/>
  <path d="M257.29 154.46A190.0 190.0 0 0 1 260.36 153.22L286.02 218.35A120.0 120.0 0 0 0 284.08 219.13Z" fill="#CD2864"/>
  <path d="M260.36 153.22A190.0 190.0 0 0 1 263.46 152.03L287.98 217.60A120.0 120.0 0 0 0 286.02 218.35Z" fill="#CD2862"/>
  <path d="M263.46 152.03A190.0 190.0 0 0 1 266.58 150.90L289.94 216.88A120.0 120.0 0 0 0 287.98 217.60Z" fill="#CD285F"/>
  <path d="M266.58 150.90A190.0 190.0 0 0 1 269.71 149.82L291.92 216.20A120.0 120.0 0 0 0 289.94 216.88Z" fill="#CD285C"/>
  <path d="M269.71 149.82A190.0 190.0 0 0 1 272.87 148.79L293.92 215.55A120.0 120.0 0 0 0 291.92 216.20Z" fill="#CD2859"/>
  <path d="M272.87 148.79A190.0 190.0 0 0 1 276.04 147.82L295.92 214.94A120.0 120.0 0 0 0 293.92 215.55Z" fill="#CD2857"/>
  <path d="M276.04 147.82A190.0 190.0 0 0 1 279.22 146.91L297.93 214.36A120.0 120.0 0 0 0 295.92 214.94Z" fill="#CD2854"/>
  <path d="M279.22 146.91A190.0 190.0 0 0 1 282.43 146.05L299.95 213.82A120.0 120.0 0 0 0 297.93 214.36Z" fill="#CD2851"/>
  <path d="M282.43 146.05A190.0 190.0 0 0 1 285.65 145.25L301.99 213.32A120.0 120.0 0 0 0 299.95 213.82Z" fill="#CD284E"/>
  <path d="M285.65 145.25A190.0 190.0 0 0 1 288.88 144.50L304.03 212.84A120.0 120.0 0 0 0 301.99 213.32Z" fill="#CD284C"/>
  <path d="M288.88 144.50A190.0 190.0 0 0 1 292.12 143.81L306.08 212.41A120.0 120.0 0 0 0 304.03 212.84Z" fill="#CD2849"/>
  <path d="M292.12 143.81A190.0 190.0 0 0 1 295.38 143.18L308.13 212.01A120.0 120.0 0 0 0 306.08 212.41Z" fill="#CD2846"/>
  <path d="M295.38 143.18A190.0 190.0 0 0 1 298.64 142.61L310.19 211.65A120.0 120.0 0 0 0 308.13 212.01Z" fill="#CD2844"/>
  <path d="M298.64 142.61A190.0 190.0 0 0 1 301.92 142.09L312.26 211.32A120.0 120.0 0 0 0 310.19 211.65Z" fill="#CD2841"/>
  <path d="M301.92 142.09A190.0 190.0 0 0 1 305.20 141.63L314.34 211.03A120.0 120.0 0 0 0 312.26 211.32Z" fill="#CD283E"/>
  <path d="M305.20 141.63A190.0 190.0 0 0 1 308.49 141.22L316.42 210.77A120.0 120.0 0 0 0 314.34 211.03Z" fill="#CD283B"/>
  <path d="M308.49 141.22A190.0 190.0 0 0 1 311.79 140.87L318.50 210.55A120.0 120.0 0 0 0 316.42 210.77Z" fill="#CD2839"/>
  <path d="M311.79 140.87A190.0 190.0 0 0 1 315.09 140.59L320.58 210.37A120.0 120.0 0 0 0 318.50 210.55Z" fill="#CD2836"/>
  <path d="M315.09 140.59A190.0 190.0 0 0 1 318.40 140.35L322.67 210.22A120.0 120.0 0 0 0 320.58 210.37Z" fill="#CD2833"/>
  <path d="M318.40 140.35A190.0 190.0 0 0 1 321.71 140.18L324.77 210.11A120.0 120.0 0 0 0 322.67 210.22Z" fill="#CD2830"/>
  <path d="M321.71 140.18A190.0 190.0 0 0 1 325.03 140.07L326.86 210.04A120.0 120.0 0 0 0 324.77 210.11Z" fill="#CD282D"/>
  <path d="M325.03 140.07A190.0 190.0 0 0 1 328.34 140.01L328.95 210.00A120.0 120.0 0 0 0 326.86 210.04Z" fill="#CD282B"/>
  
  <circle cx="330.0" cy="175.0" r="19" fill="#CD2828" stroke="#fff" stroke-width="3"/>
  <circle cx="330.0" cy="175.0" r="19" fill="none" stroke="#00000022" stroke-width="1"/>
  <text class="nm" x="330.0" y="84.0" text-anchor="middle">Red</text>
  <text class="hx" x="330.0" y="99.0" text-anchor="middle">#CD2828</text>
  <circle cx="448.7" cy="230.4" r="19" fill="#CDB228" stroke="#fff" stroke-width="3"/>
  <circle cx="448.7" cy="230.4" r="19" fill="none" stroke="#00000022" stroke-width="1"/>
  <text class="nm" x="515.4" y="170.4" text-anchor="start">Yellow</text>
  <text class="hx" x="515.4" y="185.4" text-anchor="start">#CDB228</text>
  <circle cx="450.3" cy="427.7" r="19" fill="#28CD41" stroke="#fff" stroke-width="3"/>
  <circle cx="450.3" cy="427.7" r="19" fill="none" stroke="#00000022" stroke-width="1"/>
  <text class="nm" x="517.8" y="478.6" text-anchor="start">Green</text>
  <text class="hx" x="517.8" y="493.6" text-anchor="start">#28CD41</text>
  <circle cx="241.1" cy="457.0" r="19" fill="#286DCD" stroke="#fff" stroke-width="3"/>
  <circle cx="241.1" cy="457.0" r="19" fill="none" stroke="#00000022" stroke-width="1"/>
  <text class="nm" x="191.2" y="524.2" text-anchor="end">Blue</text>
  <text class="hx" x="191.2" y="539.2" text-anchor="end">#286DCD</text>
  <circle cx="180.3" cy="289.9" r="19" fill="#A428CD" stroke="#fff" stroke-width="3"/>
  <circle cx="180.3" cy="289.9" r="19" fill="none" stroke="#00000022" stroke-width="1"/>
  <text class="nm" x="96.2" y="263.4" text-anchor="end">Purple</text>
  <text class="hx" x="96.2" y="278.4" text-anchor="end">#A428CD</text>

  <circle cx="330.0" cy="330.0" r="106.0" fill="#fff"/>
  <text class="ctr"  x="330.0" y="304.0" text-anchor="middle">base — NSColor.systemGreen</text>
  <text class="ctrh" x="330.0" y="332.0"  text-anchor="middle">#28CD41</text>
  <text class="ctr"  x="330.0" y="356.0" text-anchor="middle">HSL 129°, 67%, 48%</text>
  <text class="ctr"  x="330.0" y="376.0" text-anchor="middle">every hue below holds that S and L</text>

  <text class="nm2" x="700" y="120">Hex values</text>
  
  <rect x="700" y="150" width="54" height="54" rx="14" fill="#CD2828" stroke="#00000022"/>
  <text class="nm2" x="768" y="173">Red</text>
  <text class="hx2" x="768" y="191">#CD2828</text>
  <rect x="700" y="222" width="54" height="54" rx="14" fill="#CDB228" stroke="#00000022"/>
  <text class="nm2" x="768" y="245">Yellow</text>
  <text class="hx2" x="768" y="263">#CDB228</text>
  <rect x="700" y="294" width="54" height="54" rx="14" fill="#28CD41" stroke="#00000022"/>
  <text class="nm2" x="768" y="317">Green</text>
  <text class="hx2" x="768" y="335">#28CD41</text>
  <rect x="700" y="366" width="54" height="54" rx="14" fill="#286DCD" stroke="#00000022"/>
  <text class="nm2" x="768" y="389">Blue</text>
  <text class="hx2" x="768" y="407">#286DCD</text>
  <rect x="700" y="438" width="54" height="54" rx="14" fill="#A428CD" stroke="#00000022"/>
  <text class="nm2" x="768" y="461">Purple</text>
  <text class="hx2" x="768" y="479">#A428CD</text>
  <text class="sub" x="700" y="540">Ring shows all 360 hues at the</text>
  <text class="sub" x="700" y="558">same S/L — the five are sampled</text>
  <text class="sub" x="700" y="576">from it, not invented separately.</text>
</svg>